<svg width="44" height="41" viewBox="0 0 44 41" fill="none" xmlns="http://www.w3.org/2000/svg">
<g clip-path="url(#clip0_1_1374)">
<path d="M13.3294 31.5577L12.2133 32.6737C12.0645 32.8226 11.8934 32.897 11.6999 32.897C11.5065 32.897 11.3353 32.8226 11.1865 32.6737L0.784738 22.272C0.635928 22.1232 0.561523 21.952 0.561523 21.7586C0.561523 21.5651 0.635928 21.394 0.784738 21.2452L11.1865 10.8434C11.3353 10.6946 11.5065 10.6202 11.6999 10.6202C11.8934 10.6202 12.0645 10.6946 12.2133 10.8434L13.3294 11.9595C13.4782 12.1083 13.5526 12.2794 13.5526 12.4729C13.5526 12.6663 13.4782 12.8374 13.3294 12.9862L4.55706 21.7586L13.3294 30.5309C13.4782 30.6797 13.5526 30.8508 13.5526 31.0443C13.5526 31.2377 13.4782 31.4089 13.3294 31.5577ZM26.5213 7.74071L18.1955 36.5577C18.1359 36.7511 18.0206 36.8962 17.8495 36.9929C17.6783 37.0897 17.5035 37.1083 17.3249 37.0488L15.941 36.6693C15.7475 36.6098 15.6024 36.4944 15.5057 36.3233C15.409 36.1522 15.3904 35.9699 15.4499 35.7764L23.7758 6.95946C23.8353 6.76601 23.9507 6.62092 24.1218 6.5242C24.2929 6.42747 24.4678 6.40887 24.6463 6.46839L26.0303 6.84786C26.2237 6.90738 26.3688 7.02271 26.4655 7.19384C26.5623 7.36497 26.5809 7.54726 26.5213 7.74071ZM41.1865 22.272L30.7847 32.6737C30.6359 32.8226 30.4648 32.897 30.2713 32.897C30.0779 32.897 29.9068 32.8226 29.758 32.6737L28.6419 31.5577C28.4931 31.4089 28.4187 31.2377 28.4187 31.0443C28.4187 30.8508 28.4931 30.6797 28.6419 30.5309L37.4142 21.7586L28.6419 12.9862C28.4931 12.8374 28.4187 12.6663 28.4187 12.4729C28.4187 12.2794 28.4931 12.1083 28.6419 11.9595L29.758 10.8434C29.9068 10.6946 30.0779 10.6202 30.2713 10.6202C30.4648 10.6202 30.6359 10.6946 30.7847 10.8434L41.1865 21.2452C41.3353 21.394 41.4097 21.5651 41.4097 21.7586C41.4097 21.952 41.3353 22.1232 41.1865 22.272Z" fill="#7D11F9"/>
</g>
<defs>
<clipPath id="clip0_1_1374">
<rect width="42.86" height="40" fill="white" transform="matrix(1 0 0 -1 0.560059 40.3301)"/>
</clipPath>
</defs>
</svg>
