<svg width="36" height="41" viewBox="0 0 36 41" fill="none" xmlns="http://www.w3.org/2000/svg">
<g clip-path="url(#clip0_1_1382)">
<path d="M21.5615 30.5979V29.3479V18.9014V14.6157H14.4186V18.9014V29.3479V30.5979C14.4186 30.9699 14.5525 31.2563 14.8204 31.4572C15.0882 31.6581 15.4305 31.7586 15.8472 31.7586H20.1329C20.5495 31.7586 20.8918 31.6581 21.1597 31.4572C21.4275 31.2563 21.5615 30.9699 21.5615 30.5979ZM11.3829 11.7586H15.7356L12.9231 8.16483C12.5362 7.70352 12.0228 7.47286 11.3829 7.47286C10.7876 7.47286 10.2817 7.6812 9.86502 8.09786C9.44836 8.51453 9.24002 9.02048 9.24002 9.61572C9.24002 10.211 9.44836 10.7169 9.86502 11.1336C10.2817 11.5502 10.7876 11.7586 11.3829 11.7586ZM26.115 11.1336C26.115 11.1336 26.2192 11.0294 26.4275 10.8211C26.6359 10.6127 26.74 10.211 26.74 9.61572C26.74 9.02048 26.5317 8.51453 26.115 8.09786C25.6984 7.6812 25.1924 7.47286 24.5972 7.47286C23.9573 7.47286 23.4439 7.70352 23.057 8.16483L20.2668 11.7586H24.5972C25.1924 11.7586 25.6984 11.5502 26.115 11.1336ZM35.1329 15.33V22.4729C35.1329 22.6812 35.0659 22.8523 34.932 22.9863C34.7981 23.1202 34.6269 23.1872 34.4186 23.1872H32.2757V32.4729C32.2757 33.0681 32.0674 33.5741 31.6507 33.9907C31.2341 34.4074 30.7281 34.6157 30.1329 34.6157H5.84717C5.25193 34.6157 4.74598 34.4074 4.32931 33.9907C3.91264 33.5741 3.70431 33.0681 3.70431 32.4729V23.1872H1.56145C1.35312 23.1872 1.18199 23.1202 1.04806 22.9863C0.914132 22.8523 0.847168 22.6812 0.847168 22.4729V15.33C0.847168 15.1217 0.914132 14.9505 1.04806 14.8166C1.18199 14.6827 1.35312 14.6157 1.56145 14.6157H11.3829C9.99895 14.6157 8.81964 14.1284 7.84494 13.1537C6.87023 12.179 6.38288 10.9997 6.38288 9.61572C6.38288 8.23179 6.87023 7.05248 7.84494 6.07778C8.81964 5.10307 9.99895 4.61572 11.3829 4.61572C12.9751 4.61572 14.2251 5.18864 15.1329 6.33447L17.99 10.0175L20.8472 6.33447C21.7549 5.18864 23.0049 4.61572 24.5972 4.61572C25.9811 4.61572 27.1604 5.10307 28.1351 6.07778C29.1098 7.05248 29.5972 8.23179 29.5972 9.61572C29.5972 10.9997 29.1098 12.179 28.1351 13.1537C27.1604 14.1284 25.9811 14.6157 24.5972 14.6157H34.4186C34.6269 14.6157 34.7981 14.6827 34.932 14.8166C35.0659 14.9505 35.1329 15.1217 35.1329 15.33Z" fill="#7D11F9"/>
</g>
<defs>
<clipPath id="clip0_1_1382">
<rect width="34.3" height="40" fill="white" transform="matrix(1 0 0 -1 0.840088 40.3301)"/>
</clipPath>
</defs>
</svg>
