<svg width="36" height="41" viewBox="0 0 36 41" fill="none" xmlns="http://www.w3.org/2000/svg">
<g clip-path="url(#clip0_1_1378)">
<path d="M32.2757 3.18722C32.2757 7.07115 31.4833 10.5049 29.8985 13.4886C28.3137 16.4722 26.3308 18.7527 23.9498 20.3301C26.3308 21.9075 28.3137 24.188 29.8985 27.1716C31.4833 30.1552 32.2757 33.589 32.2757 37.4729H34.4186C34.6269 37.4729 34.7981 37.5399 34.932 37.6738C35.0659 37.8078 35.1329 37.9789 35.1329 38.1872V39.6158C35.1329 39.8241 35.0659 39.9953 34.932 40.1292C34.7981 40.2631 34.6269 40.3301 34.4186 40.3301H1.56145C1.35312 40.3301 1.18199 40.2631 1.04806 40.1292C0.914132 39.9953 0.847168 39.8241 0.847168 39.6158V38.1872C0.847168 37.9789 0.914132 37.8078 1.04806 37.6738C1.18199 37.5399 1.35312 37.4729 1.56145 37.4729H3.70431C3.70431 33.589 4.49672 30.1552 6.08154 27.1716C7.66636 24.188 9.64925 21.9075 12.0302 20.3301C9.64925 18.7527 7.66636 16.4722 6.08154 13.4886C4.49672 10.5049 3.70431 7.07115 3.70431 3.18722H1.56145C1.35312 3.18722 1.18199 3.12025 1.04806 2.98633C0.914132 2.8524 0.847168 2.68127 0.847168 2.47293V1.04436C0.847168 0.836029 0.914132 0.664898 1.04806 0.530972C1.18199 0.397041 1.35312 0.330078 1.56145 0.330078H34.4186C34.6269 0.330078 34.7981 0.397041 34.932 0.530972C35.0659 0.664898 35.1329 0.836029 35.1329 1.04436V2.47293C35.1329 2.68127 35.0659 2.8524 34.932 2.98633C34.7981 3.12025 34.6269 3.18722 34.4186 3.18722H32.2757ZM20.3561 18.9908C21.5019 18.5592 22.6106 17.871 23.682 16.9261C24.7534 15.9811 25.717 14.8464 26.5726 13.522C27.4283 12.1976 28.1165 10.6351 28.6373 8.83454C29.1582 7.03395 29.4186 5.1515 29.4186 3.18722H6.56145C6.56145 5.1515 6.82187 7.03395 7.3427 8.83454C7.86354 10.6351 8.55178 12.1976 9.40744 13.522C10.2631 14.8464 11.2266 15.9811 12.2981 16.9261C13.3695 17.871 14.4781 18.5592 15.624 18.9908C15.9067 19.095 16.1336 19.2698 16.3048 19.5153C16.4759 19.7609 16.5615 20.0325 16.5615 20.3301C16.5615 20.6277 16.4759 20.8993 16.3048 21.1448C16.1336 21.3903 15.9067 21.5652 15.624 21.6694C13.5853 22.4283 11.7698 23.8866 10.1775 26.0444H25.8025C24.2103 23.8866 22.3948 22.4283 20.3561 21.6694C20.0734 21.5652 19.8464 21.3903 19.6753 21.1448C19.5042 20.8993 19.4186 20.6277 19.4186 20.3301C19.4186 20.0325 19.5042 19.7609 19.6753 19.5153C19.8464 19.2698 20.0734 19.095 20.3561 18.9908Z" fill="#7D11F9"/>
</g>
<defs>
<clipPath id="clip0_1_1378">
<rect width="34.3" height="40" fill="white" transform="matrix(1 0 0 -1 0.840088 40.3301)"/>
</clipPath>
</defs>
</svg>
