<svg width="36" height="41" viewBox="0 0 36 41" fill="none" xmlns="http://www.w3.org/2000/svg">
<g clip-path="url(#clip0_1_1386)">
<path d="M26.1597 24.3256C25.6091 26.1262 24.5823 27.5771 23.0793 28.6783C21.5763 29.7794 19.8799 30.33 17.99 30.33C16.1001 30.33 14.4037 29.7794 12.9007 28.6783C11.3978 27.5771 10.371 26.1262 9.82038 24.3256C9.70133 23.9536 9.7311 23.5927 9.90967 23.243C10.0882 22.8933 10.371 22.6589 10.7579 22.5399C11.1299 22.4208 11.4908 22.4506 11.8405 22.6292C12.1902 22.8077 12.4245 23.0905 12.5436 23.4774C12.9156 24.6678 13.6039 25.6314 14.6083 26.368C15.6128 27.1046 16.74 27.4729 17.99 27.4729C19.24 27.4729 20.3673 27.1046 21.3717 26.368C22.3762 25.6314 23.0644 24.6678 23.4365 23.4774C23.5555 23.0905 23.7936 22.8077 24.1507 22.6292C24.5079 22.4506 24.8725 22.4208 25.2445 22.5399C25.6165 22.6589 25.8918 22.8933 26.0704 23.243C26.249 23.5927 26.2787 23.9536 26.1597 24.3256ZM14.2958 12.5957C14.2958 12.5957 14.4353 12.7352 14.7144 13.0142C14.9934 13.2932 15.1329 13.8271 15.1329 14.6158C15.1329 15.4044 14.8539 16.0778 14.2958 16.6358C13.7378 17.1939 13.0644 17.4729 12.2757 17.4729C11.487 17.4729 10.8137 17.1939 10.2556 16.6358C9.69761 16.0778 9.4186 15.4044 9.4186 14.6158C9.4186 13.8271 9.69761 13.1537 10.2556 12.5957C10.8137 12.0376 11.487 11.7586 12.2757 11.7586C13.0644 11.7586 13.7378 12.0376 14.2958 12.5957ZM25.7244 12.5957C25.7244 12.5957 25.8639 12.7352 26.1429 13.0142C26.4219 13.2932 26.5615 13.8271 26.5615 14.6158C26.5615 15.4044 26.2824 16.0778 25.7244 16.6358C25.1664 17.1939 24.493 17.4729 23.7043 17.4729C22.9156 17.4729 22.2423 17.1939 21.6842 16.6358C21.1262 16.0778 20.8472 15.4044 20.8472 14.6158C20.8472 13.8271 21.1262 13.1537 21.6842 12.5957C22.2423 12.0376 22.9156 11.7586 23.7043 11.7586C24.493 11.7586 25.1664 12.0376 25.7244 12.5957ZM31.1373 25.8769C31.1373 25.8769 31.3271 25.4361 31.7065 24.5544C32.086 23.6727 32.2757 22.2646 32.2757 20.33C32.2757 18.3955 31.8963 16.5466 31.1373 14.7832C30.3784 13.0198 29.3628 11.5019 28.0905 10.2296C26.8181 8.95728 25.3003 7.94165 23.5369 7.18272C21.7735 6.4238 19.9245 6.04433 17.99 6.04433C16.0555 6.04433 14.2065 6.4238 12.4431 7.18272C10.6798 7.94165 9.1619 8.95728 7.88958 10.2296C6.61726 11.5019 5.60163 13.0198 4.8427 14.7832C4.08377 16.5466 3.70431 18.3955 3.70431 20.33C3.70431 22.2646 4.08377 24.1135 4.8427 25.8769C5.60163 27.6403 6.61726 29.1582 7.88958 30.4305C9.1619 31.7028 10.6798 32.7184 12.4431 33.4774C14.2065 34.2363 16.0555 34.6158 17.99 34.6158C19.9245 34.6158 21.7735 34.2363 23.5369 33.4774C25.3003 32.7184 26.8181 31.7028 28.0905 30.4305C29.3628 29.1582 30.3784 27.6403 31.1373 25.8769ZM32.8338 11.7251C32.8338 11.7251 33.217 12.3818 33.9833 13.695C34.7497 15.0082 35.1329 17.2199 35.1329 20.33C35.1329 23.4402 34.3665 26.3085 32.8338 28.935C31.301 31.5614 29.2214 33.6411 26.5949 35.1738C23.9684 36.7065 21.1001 37.4729 17.99 37.4729C14.8799 37.4729 12.0116 36.7065 9.38511 35.1738C6.75863 33.6411 4.67901 31.5614 3.14628 28.935C1.61354 26.3085 0.847168 23.4402 0.847168 20.33C0.847168 17.2199 1.61354 14.3516 3.14628 11.7251C4.67901 9.09865 6.75863 7.01903 9.38511 5.4863C12.0116 3.95356 14.8799 3.18719 17.99 3.18719C21.1001 3.18719 23.9684 3.95356 26.5949 5.4863C29.2214 7.01903 31.301 9.09865 32.8338 11.7251Z" fill="#7D11F9"/>
</g>
<defs>
<clipPath id="clip0_1_1386">
<rect width="34.3" height="40" fill="white" transform="matrix(1 0 0 -1 0.840088 40.3301)"/>
</clipPath>
</defs>
</svg>
