<svg width="228" height="52" viewBox="0 0 228 52" fill="none" xmlns="http://www.w3.org/2000/svg">
<path d="M10.8584 35.0235L9.90976 35.9722C9.78327 36.0987 9.63781 36.1619 9.47337 36.1619C9.30894 36.1619 9.16348 36.0987 9.03699 35.9722L0.195469 27.1307C0.0689814 27.0042 0.0057373 26.8587 0.0057373 26.6943C0.0057373 26.5299 0.0689814 26.3844 0.195469 26.2579L9.03699 17.4164C9.16348 17.2899 9.30894 17.2267 9.47337 17.2267C9.63781 17.2267 9.78327 17.2899 9.90976 17.4164L10.8584 18.365C10.9849 18.4915 11.0481 18.637 11.0481 18.8014C11.0481 18.9659 10.9849 19.1113 10.8584 19.2378L3.40194 26.6943L10.8584 34.1508C10.9849 34.2772 11.0481 34.4227 11.0481 34.5871C11.0481 34.7516 10.9849 34.897 10.8584 35.0235ZM22.0716 14.7791L14.9946 39.2735C14.944 39.438 14.846 39.5613 14.7005 39.6435C14.555 39.7257 14.4064 39.7415 14.2546 39.6909L13.0783 39.3684C12.9138 39.3178 12.7905 39.2198 12.7083 39.0743C12.6261 38.9288 12.6103 38.7739 12.6609 38.6095L19.7379 14.115C19.7885 13.9506 19.8865 13.8273 20.032 13.7451C20.1774 13.6628 20.326 13.647 20.4778 13.6976L21.6542 14.0202C21.8186 14.0708 21.9419 14.1688 22.0242 14.3143C22.1064 14.4597 22.1222 14.6147 22.0716 14.7791ZM34.537 27.1307L25.6955 35.9722C25.569 36.0987 25.4235 36.1619 25.2591 36.1619C25.0947 36.1619 24.9492 36.0987 24.8227 35.9722L23.874 35.0235C23.7476 34.897 23.6843 34.7516 23.6843 34.5871C23.6843 34.4227 23.7476 34.2772 23.874 34.1508L31.3305 26.6943L23.874 19.2378C23.7476 19.1113 23.6843 18.9659 23.6843 18.8014C23.6843 18.637 23.7476 18.4915 23.874 18.365L24.8227 17.4164C24.9492 17.2899 25.0947 17.2267 25.2591 17.2267C25.4235 17.2267 25.569 17.2899 25.6955 17.4164L34.537 26.2579C34.6635 26.3844 34.7267 26.5299 34.7267 26.6943C34.7267 26.8587 34.6635 27.0042 34.537 27.1307Z" fill="#7D11F9"/>
<path d="M57.8533 32.108L65.6733 13.68H68.9033L57.8533 38.67L46.8033 13.68H50.0333L57.8533 32.108Z" fill="#7D11F9"/>
<path d="M81.788 13.68H87.704V37.48H81.788V13.68ZM90.288 37.48H85.596V32.38H90.084C90.9906 32.38 91.8633 32.2667 92.702 32.04C93.5633 31.8133 94.3113 31.4393 94.946 30.918C95.6033 30.3967 96.1246 29.7053 96.51 28.844C96.8953 27.96 97.088 26.872 97.088 25.58C97.088 24.288 96.8953 23.2113 96.51 22.35C96.1246 21.466 95.6033 20.7633 94.946 20.242C94.3113 19.7207 93.5633 19.3467 92.702 19.12C91.8633 18.8933 90.9906 18.78 90.084 18.78H85.596V13.68H90.288C92.8946 13.68 95.15 14.1673 97.054 15.142C98.958 16.1167 100.431 17.488 101.474 19.256C102.517 21.024 103.038 23.132 103.038 25.58C103.038 28.0053 102.517 30.1133 101.474 31.904C100.431 33.672 98.958 35.0433 97.054 36.018C95.15 36.9927 92.8946 37.48 90.288 37.48ZM114.17 37.82C112.356 37.82 110.781 37.4913 109.444 36.834C108.129 36.154 107.109 35.202 106.384 33.978C105.658 32.754 105.296 31.3147 105.296 29.66C105.296 27.9827 105.647 26.532 106.35 25.308C107.052 24.084 108.061 23.1433 109.376 22.486C110.713 21.8287 112.288 21.5 114.102 21.5C115.915 21.5 117.445 21.8173 118.692 22.452C119.938 23.064 120.89 23.9593 121.548 25.138C122.205 26.3167 122.534 27.7447 122.534 29.422C122.534 29.6713 122.534 29.9207 122.534 30.17C122.534 30.3967 122.511 30.5893 122.466 30.748H108.186V27.892H117.842L116.618 29.456C116.731 29.2973 116.822 29.1047 116.89 28.878C116.98 28.6287 117.026 28.4247 117.026 28.266C117.026 27.586 116.901 26.9967 116.652 26.498C116.402 25.9993 116.051 25.614 115.598 25.342C115.144 25.07 114.612 24.934 114 24.934C113.229 24.934 112.583 25.104 112.062 25.444C111.54 25.784 111.144 26.3053 110.872 27.008C110.622 27.688 110.486 28.5493 110.464 29.592C110.464 30.544 110.6 31.36 110.872 32.04C111.144 32.72 111.552 33.2413 112.096 33.604C112.64 33.944 113.308 34.114 114.102 34.114C115.008 34.114 115.779 33.944 116.414 33.604C117.071 33.264 117.592 32.754 117.978 32.074L122.568 33.196C121.752 34.7373 120.641 35.8933 119.236 36.664C117.853 37.4347 116.164 37.82 114.17 37.82ZM123.098 21.84H128.572L132.176 30.51L135.746 21.84H141.22L132.176 39.316L123.098 21.84ZM146.263 29.116C146.739 29.9773 147.272 30.7253 147.861 31.36C148.473 31.9947 149.131 32.482 149.833 32.822C150.559 33.162 151.318 33.332 152.111 33.332C152.95 33.332 153.641 33.128 154.185 32.72C154.729 32.2893 155.001 31.7113 155.001 30.986C155.001 30.374 154.843 29.8867 154.525 29.524C154.208 29.1387 153.698 28.776 152.995 28.436C152.293 28.096 151.363 27.7107 150.207 27.28C149.641 27.076 148.983 26.7927 148.235 26.43C147.51 26.0673 146.819 25.6027 146.161 25.036C145.504 24.4467 144.96 23.744 144.529 22.928C144.099 22.0893 143.883 21.0807 143.883 19.902C143.883 18.4967 144.246 17.284 144.971 16.264C145.719 15.244 146.717 14.4733 147.963 13.952C149.233 13.408 150.638 13.136 152.179 13.136C153.766 13.136 155.137 13.3967 156.293 13.918C157.472 14.4393 158.447 15.0967 159.217 15.89C159.988 16.6833 160.577 17.488 160.985 18.304L156.599 20.752C156.259 20.1853 155.863 19.698 155.409 19.29C154.979 18.8593 154.491 18.5307 153.947 18.304C153.426 18.0547 152.859 17.93 152.247 17.93C151.431 17.93 150.808 18.1113 150.377 18.474C149.947 18.814 149.731 19.2447 149.731 19.766C149.731 20.31 149.935 20.786 150.343 21.194C150.774 21.602 151.375 21.976 152.145 22.316C152.939 22.656 153.891 23.0187 155.001 23.404C155.84 23.7213 156.622 24.0953 157.347 24.526C158.073 24.934 158.707 25.4327 159.251 26.022C159.818 26.6113 160.26 27.2913 160.577 28.062C160.895 28.8327 161.053 29.7167 161.053 30.714C161.053 31.9153 160.804 32.992 160.305 33.944C159.829 34.8733 159.172 35.6553 158.333 36.29C157.517 36.9247 156.577 37.4007 155.511 37.718C154.469 38.058 153.392 38.228 152.281 38.228C150.74 38.228 149.301 37.956 147.963 37.412C146.649 36.8453 145.504 36.086 144.529 35.134C143.555 34.182 142.795 33.1393 142.251 32.006L146.263 29.116ZM162.549 21.84H173.021V26.09H162.549V21.84ZM165.303 16.4H170.233V37.48H165.303V16.4ZM179.188 32.584C179.188 32.992 179.29 33.3433 179.494 33.638C179.698 33.91 179.97 34.1253 180.31 34.284C180.65 34.42 181.024 34.488 181.432 34.488C182.021 34.488 182.565 34.3633 183.064 34.114C183.562 33.8647 183.97 33.4907 184.288 32.992C184.605 32.4933 184.764 31.8813 184.764 31.156L185.308 33.196C185.308 34.1933 185.036 35.0433 184.492 35.746C183.948 36.426 183.245 36.9473 182.384 37.31C181.522 37.65 180.593 37.82 179.596 37.82C178.598 37.82 177.669 37.6387 176.808 37.276C175.969 36.8907 175.289 36.324 174.768 35.576C174.269 34.828 174.02 33.9213 174.02 32.856C174.02 31.36 174.552 30.1813 175.618 29.32C176.683 28.436 178.19 27.994 180.14 27.994C181.092 27.994 181.942 28.0847 182.69 28.266C183.46 28.4473 184.118 28.674 184.662 28.946C185.206 29.218 185.614 29.5013 185.886 29.796V32.074C185.342 31.666 184.707 31.36 183.982 31.156C183.279 30.9293 182.531 30.816 181.738 30.816C181.126 30.816 180.638 30.884 180.276 31.02C179.913 31.156 179.641 31.36 179.46 31.632C179.278 31.8813 179.188 32.1987 179.188 32.584ZM176.91 26.634L175.176 23.2C176.06 22.7693 177.125 22.3613 178.372 21.976C179.618 21.5907 180.978 21.398 182.452 21.398C183.834 21.398 185.07 21.602 186.158 22.01C187.246 22.3953 188.107 22.962 188.742 23.71C189.376 24.458 189.694 25.376 189.694 26.464V37.48H184.764V27.62C184.764 27.2347 184.696 26.906 184.56 26.634C184.446 26.3393 184.265 26.09 184.016 25.886C183.766 25.682 183.449 25.5347 183.064 25.444C182.701 25.3533 182.282 25.308 181.806 25.308C181.103 25.308 180.412 25.3873 179.732 25.546C179.074 25.7047 178.496 25.8973 177.998 26.124C177.499 26.328 177.136 26.498 176.91 26.634ZM197.856 29.66C197.856 30.4987 198.037 31.224 198.4 31.836C198.762 32.4253 199.261 32.89 199.896 33.23C200.553 33.57 201.256 33.74 202.004 33.74C202.638 33.74 203.239 33.6493 203.806 33.468C204.395 33.264 204.928 32.992 205.404 32.652C205.902 32.312 206.31 31.8927 206.628 31.394V36.392C206.084 36.8227 205.404 37.174 204.588 37.446C203.772 37.6953 202.774 37.82 201.596 37.82C199.873 37.82 198.32 37.48 196.938 36.8C195.578 36.12 194.501 35.168 193.708 33.944C192.937 32.72 192.552 31.292 192.552 29.66C192.552 28.0053 192.937 26.5773 193.708 25.376C194.501 24.152 195.578 23.2 196.938 22.52C198.32 21.84 199.873 21.5 201.596 21.5C202.774 21.5 203.772 21.636 204.588 21.908C205.404 22.1573 206.084 22.4747 206.628 22.86V27.892C206.31 27.3933 205.891 26.974 205.37 26.634C204.871 26.294 204.327 26.0333 203.738 25.852C203.148 25.6707 202.57 25.58 202.004 25.58C201.256 25.58 200.553 25.7613 199.896 26.124C199.261 26.4867 198.762 26.974 198.4 27.586C198.037 28.198 197.856 28.8893 197.856 29.66ZM210.305 10.96H215.235V37.48H210.305V10.96ZM220.913 21.84H227.067L220.369 28.3L227.747 37.48H221.695L214.215 28.3L220.913 21.84Z" fill="#3F3A64"/>
</svg>
